<mxfile host="app.diagrams.net" modified="2024-04-28T17:36:38.427Z" agent="Mozilla/5.0 (Windows NT 10.0; Win64; x64) AppleWebKit/537.36 (KHTML, like Gecko) Chrome/124.0.0.0 Safari/537.36 Edg/124.0.0.0" etag="R_YBb-TiMcG1DjkmIyaL" version="24.3.1" type="github">
  <diagram name="Page-1" id="2YBvvXClWsGukQMizWep">
    <mxGraphModel dx="1563" dy="795" grid="1" gridSize="10" guides="1" tooltips="1" connect="1" arrows="1" fold="1" page="1" pageScale="1" pageWidth="850" pageHeight="1100" math="0" shadow="0">
      <root>
        <mxCell id="0" />
        <mxCell id="1" parent="0" />
        <mxCell id="THaj0_RdUtNvfIVz2Z8k-1" value="" style="shape=umlLifeline;perimeter=lifelinePerimeter;whiteSpace=wrap;html=1;container=1;dropTarget=0;collapsible=0;recursiveResize=0;outlineConnect=0;portConstraint=eastwest;newEdgeStyle={&quot;curved&quot;:0,&quot;rounded&quot;:0};participant=umlActor;" vertex="1" parent="1">
          <mxGeometry x="150" y="280" width="20" height="470" as="geometry" />
        </mxCell>
        <mxCell id="THaj0_RdUtNvfIVz2Z8k-5" value="" style="html=1;points=[[0,0,0,0,5],[0,1,0,0,-5],[1,0,0,0,5],[1,1,0,0,-5]];perimeter=orthogonalPerimeter;outlineConnect=0;targetShapes=umlLifeline;portConstraint=eastwest;newEdgeStyle={&quot;curved&quot;:0,&quot;rounded&quot;:0};" vertex="1" parent="THaj0_RdUtNvfIVz2Z8k-1">
          <mxGeometry x="5" y="60" width="10" height="370" as="geometry" />
        </mxCell>
        <mxCell id="THaj0_RdUtNvfIVz2Z8k-2" value="costumer" style="text;html=1;align=center;verticalAlign=middle;whiteSpace=wrap;rounded=0;" vertex="1" parent="1">
          <mxGeometry x="135" y="250" width="50" height="30" as="geometry" />
        </mxCell>
        <mxCell id="aM9ryv3xv72pqoxQDRHE-3" value="dispatch" style="html=1;verticalAlign=bottom;startArrow=oval;endArrow=block;startSize=8;edgeStyle=elbowEdgeStyle;elbow=vertical;curved=0;rounded=0;" parent="1" edge="1">
          <mxGeometry relative="1" as="geometry">
            <mxPoint x="90" y="340.17" as="sourcePoint" />
            <mxPoint x="155" y="340.17" as="targetPoint" />
          </mxGeometry>
        </mxCell>
        <mxCell id="THaj0_RdUtNvfIVz2Z8k-6" value="Insert card" style="html=1;verticalAlign=bottom;endArrow=block;curved=0;rounded=0;" edge="1" parent="1" target="THaj0_RdUtNvfIVz2Z8k-8">
          <mxGeometry width="80" relative="1" as="geometry">
            <mxPoint x="165" y="350" as="sourcePoint" />
            <mxPoint x="289.5" y="350" as="targetPoint" />
          </mxGeometry>
        </mxCell>
        <mxCell id="THaj0_RdUtNvfIVz2Z8k-7" value="ATM machine" style="shape=umlLifeline;perimeter=lifelinePerimeter;whiteSpace=wrap;html=1;container=1;dropTarget=0;collapsible=0;recursiveResize=0;outlineConnect=0;portConstraint=eastwest;newEdgeStyle={&quot;curved&quot;:0,&quot;rounded&quot;:0};" vertex="1" parent="1">
          <mxGeometry x="250" y="280" width="100" height="470" as="geometry" />
        </mxCell>
        <mxCell id="THaj0_RdUtNvfIVz2Z8k-8" value="" style="html=1;points=[[0,0,0,0,5],[0,1,0,0,-5],[1,0,0,0,5],[1,1,0,0,-5]];perimeter=orthogonalPerimeter;outlineConnect=0;targetShapes=umlLifeline;portConstraint=eastwest;newEdgeStyle={&quot;curved&quot;:0,&quot;rounded&quot;:0};" vertex="1" parent="THaj0_RdUtNvfIVz2Z8k-7">
          <mxGeometry x="45" y="70" width="10" height="70" as="geometry" />
        </mxCell>
        <mxCell id="THaj0_RdUtNvfIVz2Z8k-43" value="" style="html=1;points=[[0,0,0,0,5],[0,1,0,0,-5],[1,0,0,0,5],[1,1,0,0,-5]];perimeter=orthogonalPerimeter;outlineConnect=0;targetShapes=umlLifeline;portConstraint=eastwest;newEdgeStyle={&quot;curved&quot;:0,&quot;rounded&quot;:0};" vertex="1" parent="THaj0_RdUtNvfIVz2Z8k-7">
          <mxGeometry x="45" y="160" width="10" height="120" as="geometry" />
        </mxCell>
        <mxCell id="THaj0_RdUtNvfIVz2Z8k-44" value="" style="html=1;points=[[0,0,0,0,5],[0,1,0,0,-5],[1,0,0,0,5],[1,1,0,0,-5]];perimeter=orthogonalPerimeter;outlineConnect=0;targetShapes=umlLifeline;portConstraint=eastwest;newEdgeStyle={&quot;curved&quot;:0,&quot;rounded&quot;:0};" vertex="1" parent="THaj0_RdUtNvfIVz2Z8k-7">
          <mxGeometry x="45" y="340" width="10" height="100" as="geometry" />
        </mxCell>
        <mxCell id="THaj0_RdUtNvfIVz2Z8k-9" value="" style="html=1;verticalAlign=bottom;labelBackgroundColor=none;endArrow=block;endFill=1;dashed=1;rounded=0;" edge="1" parent="1">
          <mxGeometry width="160" relative="1" as="geometry">
            <mxPoint x="295" y="380" as="sourcePoint" />
            <mxPoint x="165" y="380" as="targetPoint" />
          </mxGeometry>
        </mxCell>
        <mxCell id="THaj0_RdUtNvfIVz2Z8k-10" value="Request PIN" style="edgeLabel;html=1;align=center;verticalAlign=middle;resizable=0;points=[];" vertex="1" connectable="0" parent="THaj0_RdUtNvfIVz2Z8k-9">
          <mxGeometry x="0.2154" y="1" relative="1" as="geometry">
            <mxPoint x="14" y="-11" as="offset" />
          </mxGeometry>
        </mxCell>
        <mxCell id="THaj0_RdUtNvfIVz2Z8k-11" value="" style="html=1;verticalAlign=bottom;labelBackgroundColor=none;endArrow=block;endFill=1;rounded=0;" edge="1" parent="1">
          <mxGeometry width="160" relative="1" as="geometry">
            <mxPoint x="165" y="410" as="sourcePoint" />
            <mxPoint x="295" y="410" as="targetPoint" />
          </mxGeometry>
        </mxCell>
        <mxCell id="THaj0_RdUtNvfIVz2Z8k-12" value="Enter PIN" style="edgeLabel;html=1;align=center;verticalAlign=middle;resizable=0;points=[];" vertex="1" connectable="0" parent="THaj0_RdUtNvfIVz2Z8k-11">
          <mxGeometry x="0.1607" y="1" relative="1" as="geometry">
            <mxPoint x="-11" y="-9" as="offset" />
          </mxGeometry>
        </mxCell>
        <mxCell id="THaj0_RdUtNvfIVz2Z8k-13" value="Banking server" style="shape=umlLifeline;perimeter=lifelinePerimeter;whiteSpace=wrap;html=1;container=1;dropTarget=0;collapsible=0;recursiveResize=0;outlineConnect=0;portConstraint=eastwest;newEdgeStyle={&quot;edgeStyle&quot;:&quot;elbowEdgeStyle&quot;,&quot;elbow&quot;:&quot;vertical&quot;,&quot;curved&quot;:0,&quot;rounded&quot;:0};" vertex="1" parent="1">
          <mxGeometry x="380" y="280" width="100" height="470" as="geometry" />
        </mxCell>
        <mxCell id="THaj0_RdUtNvfIVz2Z8k-15" value="" style="html=1;points=[[0,0,0,0,5],[0,1,0,0,-5],[1,0,0,0,5],[1,1,0,0,-5]];perimeter=orthogonalPerimeter;outlineConnect=0;targetShapes=umlLifeline;portConstraint=eastwest;newEdgeStyle={&quot;curved&quot;:0,&quot;rounded&quot;:0};" vertex="1" parent="THaj0_RdUtNvfIVz2Z8k-13">
          <mxGeometry x="45" y="130" width="10" height="40" as="geometry" />
        </mxCell>
        <mxCell id="THaj0_RdUtNvfIVz2Z8k-32" value="" style="html=1;points=[[0,0,0,0,5],[0,1,0,0,-5],[1,0,0,0,5],[1,1,0,0,-5]];perimeter=orthogonalPerimeter;outlineConnect=0;targetShapes=umlLifeline;portConstraint=eastwest;newEdgeStyle={&quot;curved&quot;:0,&quot;rounded&quot;:0};" vertex="1" parent="THaj0_RdUtNvfIVz2Z8k-13">
          <mxGeometry x="45" y="280" width="10" height="60" as="geometry" />
        </mxCell>
        <mxCell id="THaj0_RdUtNvfIVz2Z8k-16" value="" style="html=1;verticalAlign=bottom;labelBackgroundColor=none;endArrow=block;endFill=1;rounded=0;entryX=0;entryY=0;entryDx=0;entryDy=5;entryPerimeter=0;" edge="1" parent="1" source="THaj0_RdUtNvfIVz2Z8k-8" target="THaj0_RdUtNvfIVz2Z8k-15">
          <mxGeometry width="160" relative="1" as="geometry">
            <mxPoint x="310" y="420" as="sourcePoint" />
            <mxPoint x="420" y="420" as="targetPoint" />
          </mxGeometry>
        </mxCell>
        <mxCell id="THaj0_RdUtNvfIVz2Z8k-17" value="Verify pin" style="edgeLabel;html=1;align=center;verticalAlign=middle;resizable=0;points=[];" vertex="1" connectable="0" parent="THaj0_RdUtNvfIVz2Z8k-16">
          <mxGeometry x="0.2095" relative="1" as="geometry">
            <mxPoint x="-8" y="-15" as="offset" />
          </mxGeometry>
        </mxCell>
        <mxCell id="THaj0_RdUtNvfIVz2Z8k-18" value="" style="html=1;verticalAlign=bottom;labelBackgroundColor=none;endArrow=block;endFill=1;dashed=1;rounded=0;" edge="1" parent="1">
          <mxGeometry width="160" relative="1" as="geometry">
            <mxPoint x="425" y="440" as="sourcePoint" />
            <mxPoint x="310" y="440" as="targetPoint" />
          </mxGeometry>
        </mxCell>
        <mxCell id="THaj0_RdUtNvfIVz2Z8k-19" value="Verified" style="edgeLabel;html=1;align=center;verticalAlign=middle;resizable=0;points=[];" vertex="1" connectable="0" parent="THaj0_RdUtNvfIVz2Z8k-18">
          <mxGeometry x="-0.1333" y="2" relative="1" as="geometry">
            <mxPoint x="-3" y="-12" as="offset" />
          </mxGeometry>
        </mxCell>
        <mxCell id="THaj0_RdUtNvfIVz2Z8k-20" value="" style="html=1;verticalAlign=bottom;labelBackgroundColor=none;endArrow=block;endFill=1;dashed=1;rounded=0;" edge="1" parent="1">
          <mxGeometry width="160" relative="1" as="geometry">
            <mxPoint x="295" y="450" as="sourcePoint" />
            <mxPoint x="170" y="450" as="targetPoint" />
          </mxGeometry>
        </mxCell>
        <mxCell id="THaj0_RdUtNvfIVz2Z8k-21" value="Enter desired action" style="edgeLabel;html=1;align=center;verticalAlign=middle;resizable=0;points=[];" vertex="1" connectable="0" parent="THaj0_RdUtNvfIVz2Z8k-20">
          <mxGeometry x="-0.3189" y="-1" relative="1" as="geometry">
            <mxPoint x="-23" y="-9" as="offset" />
          </mxGeometry>
        </mxCell>
        <mxCell id="THaj0_RdUtNvfIVz2Z8k-23" value="" style="html=1;verticalAlign=bottom;labelBackgroundColor=none;endArrow=block;endFill=1;rounded=0;" edge="1" parent="1">
          <mxGeometry width="160" relative="1" as="geometry">
            <mxPoint x="165" y="480" as="sourcePoint" />
            <mxPoint x="295" y="480" as="targetPoint" />
          </mxGeometry>
        </mxCell>
        <mxCell id="THaj0_RdUtNvfIVz2Z8k-24" value="Transfer money" style="edgeLabel;html=1;align=center;verticalAlign=middle;resizable=0;points=[];" vertex="1" connectable="0" parent="THaj0_RdUtNvfIVz2Z8k-23">
          <mxGeometry x="-0.3212" y="1" relative="1" as="geometry">
            <mxPoint x="21" y="-9" as="offset" />
          </mxGeometry>
        </mxCell>
        <mxCell id="THaj0_RdUtNvfIVz2Z8k-25" value="" style="html=1;verticalAlign=bottom;labelBackgroundColor=none;endArrow=block;endFill=1;dashed=1;rounded=0;" edge="1" parent="1">
          <mxGeometry width="160" relative="1" as="geometry">
            <mxPoint x="295" y="530" as="sourcePoint" />
            <mxPoint x="165" y="530" as="targetPoint" />
          </mxGeometry>
        </mxCell>
        <mxCell id="THaj0_RdUtNvfIVz2Z8k-26" value="How much&amp;nbsp;&lt;div&gt;and to what account&lt;/div&gt;" style="edgeLabel;html=1;align=center;verticalAlign=middle;resizable=0;points=[];" vertex="1" connectable="0" parent="THaj0_RdUtNvfIVz2Z8k-25">
          <mxGeometry x="-0.2132" y="1" relative="1" as="geometry">
            <mxPoint x="-14" y="-21" as="offset" />
          </mxGeometry>
        </mxCell>
        <mxCell id="THaj0_RdUtNvfIVz2Z8k-27" value="" style="html=1;verticalAlign=bottom;labelBackgroundColor=none;endArrow=block;endFill=1;rounded=0;" edge="1" parent="1">
          <mxGeometry width="160" relative="1" as="geometry">
            <mxPoint x="165" y="560" as="sourcePoint" />
            <mxPoint x="295" y="560" as="targetPoint" />
          </mxGeometry>
        </mxCell>
        <mxCell id="THaj0_RdUtNvfIVz2Z8k-28" value="Enter requested info" style="edgeLabel;html=1;align=center;verticalAlign=middle;resizable=0;points=[];" vertex="1" connectable="0" parent="THaj0_RdUtNvfIVz2Z8k-27">
          <mxGeometry x="0.3099" relative="1" as="geometry">
            <mxPoint x="-20" y="-10" as="offset" />
          </mxGeometry>
        </mxCell>
        <mxCell id="THaj0_RdUtNvfIVz2Z8k-29" value="" style="html=1;verticalAlign=bottom;labelBackgroundColor=none;endArrow=block;endFill=1;rounded=0;" edge="1" parent="1">
          <mxGeometry width="160" relative="1" as="geometry">
            <mxPoint x="310" y="560" as="sourcePoint" />
            <mxPoint x="420" y="560" as="targetPoint" />
          </mxGeometry>
        </mxCell>
        <mxCell id="THaj0_RdUtNvfIVz2Z8k-30" value="Check balance" style="edgeLabel;html=1;align=center;verticalAlign=middle;resizable=0;points=[];" vertex="1" connectable="0" parent="THaj0_RdUtNvfIVz2Z8k-29">
          <mxGeometry x="-0.0926" y="1" relative="1" as="geometry">
            <mxPoint x="3" y="-9" as="offset" />
          </mxGeometry>
        </mxCell>
        <mxCell id="THaj0_RdUtNvfIVz2Z8k-35" value="" style="shape=ellipse;container=1;horizontal=1;horizontalStack=0;resizeParent=1;resizeParentMax=0;resizeLast=0;html=1;dashed=0;collapsible=0;" vertex="1" parent="1">
          <mxGeometry x="490" y="540" width="110" height="40" as="geometry" />
        </mxCell>
        <mxCell id="THaj0_RdUtNvfIVz2Z8k-36" value="&lt;font style=&quot;font-size: 9px;&quot;&gt;Balance &amp;gt; entered value&lt;/font&gt;" style="html=1;strokeColor=none;fillColor=none;align=center;verticalAlign=middle;rotatable=0;whiteSpace=wrap;" vertex="1" parent="THaj0_RdUtNvfIVz2Z8k-35">
          <mxGeometry y="8.330476190476192" width="110.00000000000001" height="10" as="geometry" />
        </mxCell>
        <mxCell id="THaj0_RdUtNvfIVz2Z8k-37" value="" style="line;strokeWidth=1;fillColor=none;rotatable=0;labelPosition=right;points=[];portConstraint=eastwest;dashed=0;resizeWidth=1;" vertex="1" parent="THaj0_RdUtNvfIVz2Z8k-35">
          <mxGeometry y="18.32904761904762" width="110.00000000000001" height="3.333333333333334" as="geometry" />
        </mxCell>
        <mxCell id="THaj0_RdUtNvfIVz2Z8k-41" value="" style="html=1;verticalAlign=bottom;labelBackgroundColor=none;endArrow=block;endFill=1;dashed=1;rounded=0;" edge="1" parent="1">
          <mxGeometry width="160" relative="1" as="geometry">
            <mxPoint x="425" y="620" as="sourcePoint" />
            <mxPoint x="310" y="620" as="targetPoint" />
          </mxGeometry>
        </mxCell>
        <mxCell id="THaj0_RdUtNvfIVz2Z8k-45" value="&lt;font style=&quot;font-size: 10px;&quot;&gt;Transaction complete&lt;/font&gt;" style="edgeLabel;html=1;align=center;verticalAlign=middle;resizable=0;points=[];" vertex="1" connectable="0" parent="THaj0_RdUtNvfIVz2Z8k-41">
          <mxGeometry x="-0.5861" y="-2" relative="1" as="geometry">
            <mxPoint x="-41" y="-8" as="offset" />
          </mxGeometry>
        </mxCell>
        <mxCell id="THaj0_RdUtNvfIVz2Z8k-33" value="Transaction" style="html=1;align=left;spacingLeft=2;endArrow=block;rounded=0;edgeStyle=orthogonalEdgeStyle;curved=0;rounded=0;entryX=1.5;entryY=0.833;entryDx=0;entryDy=0;entryPerimeter=0;" edge="1" target="THaj0_RdUtNvfIVz2Z8k-32" parent="1">
          <mxGeometry x="0.5663" y="10" relative="1" as="geometry">
            <mxPoint x="435" y="560" as="sourcePoint" />
            <Array as="points">
              <mxPoint x="630" y="560" />
              <mxPoint x="630" y="610" />
            </Array>
            <mxPoint x="440" y="610" as="targetPoint" />
            <mxPoint as="offset" />
          </mxGeometry>
        </mxCell>
        <mxCell id="THaj0_RdUtNvfIVz2Z8k-47" value="" style="html=1;verticalAlign=bottom;labelBackgroundColor=none;endArrow=block;endFill=1;dashed=1;rounded=0;" edge="1" parent="1">
          <mxGeometry width="160" relative="1" as="geometry">
            <mxPoint x="295" y="650" as="sourcePoint" />
            <mxPoint x="165" y="650" as="targetPoint" />
          </mxGeometry>
        </mxCell>
        <mxCell id="THaj0_RdUtNvfIVz2Z8k-48" value="Print Reciept" style="edgeLabel;html=1;align=center;verticalAlign=middle;resizable=0;points=[];" vertex="1" connectable="0" parent="THaj0_RdUtNvfIVz2Z8k-47">
          <mxGeometry x="-0.2277" y="2" relative="1" as="geometry">
            <mxPoint x="-5" y="-12" as="offset" />
          </mxGeometry>
        </mxCell>
        <mxCell id="THaj0_RdUtNvfIVz2Z8k-49" value="" style="html=1;verticalAlign=bottom;labelBackgroundColor=none;endArrow=block;endFill=1;rounded=0;" edge="1" parent="1">
          <mxGeometry width="160" relative="1" as="geometry">
            <mxPoint x="295" y="680" as="sourcePoint" />
            <mxPoint x="170" y="680" as="targetPoint" />
          </mxGeometry>
        </mxCell>
        <mxCell id="THaj0_RdUtNvfIVz2Z8k-50" value="Eject card" style="edgeLabel;html=1;align=center;verticalAlign=middle;resizable=0;points=[];" vertex="1" connectable="0" parent="THaj0_RdUtNvfIVz2Z8k-49">
          <mxGeometry x="-0.2544" y="1" relative="1" as="geometry">
            <mxPoint x="-8" y="-11" as="offset" />
          </mxGeometry>
        </mxCell>
        <mxCell id="THaj0_RdUtNvfIVz2Z8k-51" value="" style="html=1;verticalAlign=bottom;labelBackgroundColor=none;endArrow=block;endFill=1;dashed=1;rounded=0;exitX=1;exitY=1;exitDx=0;exitDy=-5;exitPerimeter=0;" edge="1" parent="1" source="THaj0_RdUtNvfIVz2Z8k-5" target="THaj0_RdUtNvfIVz2Z8k-44">
          <mxGeometry width="160" relative="1" as="geometry">
            <mxPoint x="170" y="710" as="sourcePoint" />
            <mxPoint x="330" y="710" as="targetPoint" />
          </mxGeometry>
        </mxCell>
        <mxCell id="THaj0_RdUtNvfIVz2Z8k-52" value="Card retrieved" style="edgeLabel;html=1;align=center;verticalAlign=middle;resizable=0;points=[];" vertex="1" connectable="0" parent="THaj0_RdUtNvfIVz2Z8k-51">
          <mxGeometry x="0.1662" y="-2" relative="1" as="geometry">
            <mxPoint x="-11" y="13" as="offset" />
          </mxGeometry>
        </mxCell>
        <mxCell id="THaj0_RdUtNvfIVz2Z8k-53" value="" style="shape=umlLifeline;perimeter=lifelinePerimeter;whiteSpace=wrap;html=1;container=1;dropTarget=0;collapsible=0;recursiveResize=0;outlineConnect=0;portConstraint=eastwest;newEdgeStyle={&quot;curved&quot;:0,&quot;rounded&quot;:0};participant=umlActor;" vertex="1" parent="1">
          <mxGeometry x="219.98000000000002" y="1210" width="20" height="470" as="geometry" />
        </mxCell>
        <mxCell id="THaj0_RdUtNvfIVz2Z8k-54" value="" style="html=1;points=[[0,0,0,0,5],[0,1,0,0,-5],[1,0,0,0,5],[1,1,0,0,-5]];perimeter=orthogonalPerimeter;outlineConnect=0;targetShapes=umlLifeline;portConstraint=eastwest;newEdgeStyle={&quot;curved&quot;:0,&quot;rounded&quot;:0};" vertex="1" parent="THaj0_RdUtNvfIVz2Z8k-53">
          <mxGeometry x="5" y="60" width="10" height="370" as="geometry" />
        </mxCell>
        <mxCell id="THaj0_RdUtNvfIVz2Z8k-55" value="costumer" style="text;html=1;align=center;verticalAlign=middle;whiteSpace=wrap;rounded=0;" vertex="1" parent="1">
          <mxGeometry x="204.98000000000002" y="1180" width="50" height="30" as="geometry" />
        </mxCell>
        <mxCell id="THaj0_RdUtNvfIVz2Z8k-56" value="dispatch" style="html=1;verticalAlign=bottom;startArrow=oval;endArrow=block;startSize=8;edgeStyle=elbowEdgeStyle;elbow=vertical;curved=0;rounded=0;" edge="1" parent="1">
          <mxGeometry relative="1" as="geometry">
            <mxPoint x="159.98000000000002" y="1270.17" as="sourcePoint" />
            <mxPoint x="224.98000000000002" y="1270.17" as="targetPoint" />
          </mxGeometry>
        </mxCell>
        <mxCell id="THaj0_RdUtNvfIVz2Z8k-57" value="Insert card" style="html=1;verticalAlign=bottom;endArrow=block;curved=0;rounded=0;" edge="1" parent="1" target="THaj0_RdUtNvfIVz2Z8k-59">
          <mxGeometry width="80" relative="1" as="geometry">
            <mxPoint x="234.98000000000002" y="1280" as="sourcePoint" />
            <mxPoint x="359.48" y="1280" as="targetPoint" />
          </mxGeometry>
        </mxCell>
        <mxCell id="THaj0_RdUtNvfIVz2Z8k-58" value="ATM machine" style="shape=umlLifeline;perimeter=lifelinePerimeter;whiteSpace=wrap;html=1;container=1;dropTarget=0;collapsible=0;recursiveResize=0;outlineConnect=0;portConstraint=eastwest;newEdgeStyle={&quot;curved&quot;:0,&quot;rounded&quot;:0};" vertex="1" parent="1">
          <mxGeometry x="319.98" y="1210" width="100" height="470" as="geometry" />
        </mxCell>
        <mxCell id="THaj0_RdUtNvfIVz2Z8k-59" value="" style="html=1;points=[[0,0,0,0,5],[0,1,0,0,-5],[1,0,0,0,5],[1,1,0,0,-5]];perimeter=orthogonalPerimeter;outlineConnect=0;targetShapes=umlLifeline;portConstraint=eastwest;newEdgeStyle={&quot;curved&quot;:0,&quot;rounded&quot;:0};" vertex="1" parent="THaj0_RdUtNvfIVz2Z8k-58">
          <mxGeometry x="45" y="70" width="10" height="70" as="geometry" />
        </mxCell>
        <mxCell id="THaj0_RdUtNvfIVz2Z8k-60" value="" style="html=1;points=[[0,0,0,0,5],[0,1,0,0,-5],[1,0,0,0,5],[1,1,0,0,-5]];perimeter=orthogonalPerimeter;outlineConnect=0;targetShapes=umlLifeline;portConstraint=eastwest;newEdgeStyle={&quot;curved&quot;:0,&quot;rounded&quot;:0};" vertex="1" parent="THaj0_RdUtNvfIVz2Z8k-58">
          <mxGeometry x="45" y="160" width="10" height="120" as="geometry" />
        </mxCell>
        <mxCell id="THaj0_RdUtNvfIVz2Z8k-61" value="" style="html=1;points=[[0,0,0,0,5],[0,1,0,0,-5],[1,0,0,0,5],[1,1,0,0,-5]];perimeter=orthogonalPerimeter;outlineConnect=0;targetShapes=umlLifeline;portConstraint=eastwest;newEdgeStyle={&quot;curved&quot;:0,&quot;rounded&quot;:0};" vertex="1" parent="THaj0_RdUtNvfIVz2Z8k-58">
          <mxGeometry x="45" y="340" width="10" height="100" as="geometry" />
        </mxCell>
        <mxCell id="THaj0_RdUtNvfIVz2Z8k-62" value="" style="html=1;verticalAlign=bottom;labelBackgroundColor=none;endArrow=block;endFill=1;dashed=1;rounded=0;" edge="1" parent="1">
          <mxGeometry width="160" relative="1" as="geometry">
            <mxPoint x="364.98" y="1310" as="sourcePoint" />
            <mxPoint x="234.98000000000002" y="1310" as="targetPoint" />
          </mxGeometry>
        </mxCell>
        <mxCell id="THaj0_RdUtNvfIVz2Z8k-63" value="Request PIN" style="edgeLabel;html=1;align=center;verticalAlign=middle;resizable=0;points=[];" vertex="1" connectable="0" parent="THaj0_RdUtNvfIVz2Z8k-62">
          <mxGeometry x="0.2154" y="1" relative="1" as="geometry">
            <mxPoint x="14" y="-11" as="offset" />
          </mxGeometry>
        </mxCell>
        <mxCell id="THaj0_RdUtNvfIVz2Z8k-64" value="" style="html=1;verticalAlign=bottom;labelBackgroundColor=none;endArrow=block;endFill=1;rounded=0;" edge="1" parent="1">
          <mxGeometry width="160" relative="1" as="geometry">
            <mxPoint x="234.98000000000002" y="1340" as="sourcePoint" />
            <mxPoint x="364.98" y="1340" as="targetPoint" />
          </mxGeometry>
        </mxCell>
        <mxCell id="THaj0_RdUtNvfIVz2Z8k-65" value="Enter PIN" style="edgeLabel;html=1;align=center;verticalAlign=middle;resizable=0;points=[];" vertex="1" connectable="0" parent="THaj0_RdUtNvfIVz2Z8k-64">
          <mxGeometry x="0.1607" y="1" relative="1" as="geometry">
            <mxPoint x="-11" y="-9" as="offset" />
          </mxGeometry>
        </mxCell>
        <mxCell id="THaj0_RdUtNvfIVz2Z8k-66" value="Banking server" style="shape=umlLifeline;perimeter=lifelinePerimeter;whiteSpace=wrap;html=1;container=1;dropTarget=0;collapsible=0;recursiveResize=0;outlineConnect=0;portConstraint=eastwest;newEdgeStyle={&quot;edgeStyle&quot;:&quot;elbowEdgeStyle&quot;,&quot;elbow&quot;:&quot;vertical&quot;,&quot;curved&quot;:0,&quot;rounded&quot;:0};" vertex="1" parent="1">
          <mxGeometry x="449.98" y="1210" width="100" height="470" as="geometry" />
        </mxCell>
        <mxCell id="THaj0_RdUtNvfIVz2Z8k-67" value="" style="html=1;points=[[0,0,0,0,5],[0,1,0,0,-5],[1,0,0,0,5],[1,1,0,0,-5]];perimeter=orthogonalPerimeter;outlineConnect=0;targetShapes=umlLifeline;portConstraint=eastwest;newEdgeStyle={&quot;curved&quot;:0,&quot;rounded&quot;:0};" vertex="1" parent="THaj0_RdUtNvfIVz2Z8k-66">
          <mxGeometry x="45" y="130" width="10" height="40" as="geometry" />
        </mxCell>
        <mxCell id="THaj0_RdUtNvfIVz2Z8k-68" value="" style="html=1;points=[[0,0,0,0,5],[0,1,0,0,-5],[1,0,0,0,5],[1,1,0,0,-5]];perimeter=orthogonalPerimeter;outlineConnect=0;targetShapes=umlLifeline;portConstraint=eastwest;newEdgeStyle={&quot;curved&quot;:0,&quot;rounded&quot;:0};" vertex="1" parent="THaj0_RdUtNvfIVz2Z8k-66">
          <mxGeometry x="45" y="280" width="10" height="60" as="geometry" />
        </mxCell>
        <mxCell id="THaj0_RdUtNvfIVz2Z8k-69" value="" style="html=1;verticalAlign=bottom;labelBackgroundColor=none;endArrow=block;endFill=1;rounded=0;entryX=0;entryY=0;entryDx=0;entryDy=5;entryPerimeter=0;" edge="1" parent="1" source="THaj0_RdUtNvfIVz2Z8k-59" target="THaj0_RdUtNvfIVz2Z8k-67">
          <mxGeometry width="160" relative="1" as="geometry">
            <mxPoint x="379.98" y="1350" as="sourcePoint" />
            <mxPoint x="489.98" y="1350" as="targetPoint" />
          </mxGeometry>
        </mxCell>
        <mxCell id="THaj0_RdUtNvfIVz2Z8k-70" value="Verify pin" style="edgeLabel;html=1;align=center;verticalAlign=middle;resizable=0;points=[];" vertex="1" connectable="0" parent="THaj0_RdUtNvfIVz2Z8k-69">
          <mxGeometry x="0.2095" relative="1" as="geometry">
            <mxPoint x="-8" y="-15" as="offset" />
          </mxGeometry>
        </mxCell>
        <mxCell id="THaj0_RdUtNvfIVz2Z8k-71" value="" style="html=1;verticalAlign=bottom;labelBackgroundColor=none;endArrow=block;endFill=1;dashed=1;rounded=0;" edge="1" parent="1">
          <mxGeometry width="160" relative="1" as="geometry">
            <mxPoint x="494.98" y="1370" as="sourcePoint" />
            <mxPoint x="379.98" y="1370" as="targetPoint" />
          </mxGeometry>
        </mxCell>
        <mxCell id="THaj0_RdUtNvfIVz2Z8k-72" value="Verified" style="edgeLabel;html=1;align=center;verticalAlign=middle;resizable=0;points=[];" vertex="1" connectable="0" parent="THaj0_RdUtNvfIVz2Z8k-71">
          <mxGeometry x="-0.1333" y="2" relative="1" as="geometry">
            <mxPoint x="-3" y="-12" as="offset" />
          </mxGeometry>
        </mxCell>
        <mxCell id="THaj0_RdUtNvfIVz2Z8k-73" value="" style="html=1;verticalAlign=bottom;labelBackgroundColor=none;endArrow=block;endFill=1;dashed=1;rounded=0;" edge="1" parent="1">
          <mxGeometry width="160" relative="1" as="geometry">
            <mxPoint x="364.98" y="1380" as="sourcePoint" />
            <mxPoint x="239.98000000000002" y="1380" as="targetPoint" />
          </mxGeometry>
        </mxCell>
        <mxCell id="THaj0_RdUtNvfIVz2Z8k-74" value="Enter desired action" style="edgeLabel;html=1;align=center;verticalAlign=middle;resizable=0;points=[];" vertex="1" connectable="0" parent="THaj0_RdUtNvfIVz2Z8k-73">
          <mxGeometry x="-0.3189" y="-1" relative="1" as="geometry">
            <mxPoint x="-23" y="-9" as="offset" />
          </mxGeometry>
        </mxCell>
        <mxCell id="THaj0_RdUtNvfIVz2Z8k-75" value="" style="html=1;verticalAlign=bottom;labelBackgroundColor=none;endArrow=block;endFill=1;rounded=0;" edge="1" parent="1">
          <mxGeometry width="160" relative="1" as="geometry">
            <mxPoint x="234.98000000000002" y="1410" as="sourcePoint" />
            <mxPoint x="364.98" y="1410" as="targetPoint" />
          </mxGeometry>
        </mxCell>
        <mxCell id="THaj0_RdUtNvfIVz2Z8k-76" value="Withdraw money" style="edgeLabel;html=1;align=center;verticalAlign=middle;resizable=0;points=[];" vertex="1" connectable="0" parent="THaj0_RdUtNvfIVz2Z8k-75">
          <mxGeometry x="-0.3212" y="1" relative="1" as="geometry">
            <mxPoint x="21" y="-9" as="offset" />
          </mxGeometry>
        </mxCell>
        <mxCell id="THaj0_RdUtNvfIVz2Z8k-77" value="" style="html=1;verticalAlign=bottom;labelBackgroundColor=none;endArrow=block;endFill=1;dashed=1;rounded=0;" edge="1" parent="1">
          <mxGeometry width="160" relative="1" as="geometry">
            <mxPoint x="359.98" y="1450" as="sourcePoint" />
            <mxPoint x="239.98000000000002" y="1450" as="targetPoint" />
          </mxGeometry>
        </mxCell>
        <mxCell id="THaj0_RdUtNvfIVz2Z8k-78" value="How much&amp;nbsp;" style="edgeLabel;html=1;align=center;verticalAlign=middle;resizable=0;points=[];" vertex="1" connectable="0" parent="THaj0_RdUtNvfIVz2Z8k-77">
          <mxGeometry x="-0.2132" y="1" relative="1" as="geometry">
            <mxPoint x="-14" y="-16" as="offset" />
          </mxGeometry>
        </mxCell>
        <mxCell id="THaj0_RdUtNvfIVz2Z8k-79" value="" style="html=1;verticalAlign=bottom;labelBackgroundColor=none;endArrow=block;endFill=1;rounded=0;" edge="1" parent="1">
          <mxGeometry width="160" relative="1" as="geometry">
            <mxPoint x="234.98000000000002" y="1480" as="sourcePoint" />
            <mxPoint x="364.98" y="1480" as="targetPoint" />
          </mxGeometry>
        </mxCell>
        <mxCell id="THaj0_RdUtNvfIVz2Z8k-80" value="Enter amount" style="edgeLabel;html=1;align=center;verticalAlign=middle;resizable=0;points=[];" vertex="1" connectable="0" parent="THaj0_RdUtNvfIVz2Z8k-79">
          <mxGeometry x="0.3099" relative="1" as="geometry">
            <mxPoint x="-20" y="-10" as="offset" />
          </mxGeometry>
        </mxCell>
        <mxCell id="THaj0_RdUtNvfIVz2Z8k-81" value="" style="html=1;verticalAlign=bottom;labelBackgroundColor=none;endArrow=block;endFill=1;rounded=0;" edge="1" parent="1">
          <mxGeometry width="160" relative="1" as="geometry">
            <mxPoint x="379.98" y="1490" as="sourcePoint" />
            <mxPoint x="489.98" y="1490" as="targetPoint" />
          </mxGeometry>
        </mxCell>
        <mxCell id="THaj0_RdUtNvfIVz2Z8k-82" value="Check balance" style="edgeLabel;html=1;align=center;verticalAlign=middle;resizable=0;points=[];" vertex="1" connectable="0" parent="THaj0_RdUtNvfIVz2Z8k-81">
          <mxGeometry x="-0.0926" y="1" relative="1" as="geometry">
            <mxPoint x="3" y="-9" as="offset" />
          </mxGeometry>
        </mxCell>
        <mxCell id="THaj0_RdUtNvfIVz2Z8k-83" value="" style="shape=ellipse;container=1;horizontal=1;horizontalStack=0;resizeParent=1;resizeParentMax=0;resizeLast=0;html=1;dashed=0;collapsible=0;" vertex="1" parent="1">
          <mxGeometry x="559.98" y="1470" width="110" height="40" as="geometry" />
        </mxCell>
        <mxCell id="THaj0_RdUtNvfIVz2Z8k-84" value="&lt;font style=&quot;font-size: 9px;&quot;&gt;Balance &amp;gt; entered value&lt;/font&gt;" style="html=1;strokeColor=none;fillColor=none;align=center;verticalAlign=middle;rotatable=0;whiteSpace=wrap;" vertex="1" parent="THaj0_RdUtNvfIVz2Z8k-83">
          <mxGeometry y="8.330476190476192" width="110.00000000000001" height="10" as="geometry" />
        </mxCell>
        <mxCell id="THaj0_RdUtNvfIVz2Z8k-85" value="" style="line;strokeWidth=1;fillColor=none;rotatable=0;labelPosition=right;points=[];portConstraint=eastwest;dashed=0;resizeWidth=1;" vertex="1" parent="THaj0_RdUtNvfIVz2Z8k-83">
          <mxGeometry y="18.32904761904762" width="110.00000000000001" height="3.333333333333334" as="geometry" />
        </mxCell>
        <mxCell id="THaj0_RdUtNvfIVz2Z8k-86" value="" style="html=1;verticalAlign=bottom;labelBackgroundColor=none;endArrow=block;endFill=1;dashed=1;rounded=0;" edge="1" parent="1">
          <mxGeometry width="160" relative="1" as="geometry">
            <mxPoint x="494.98" y="1550" as="sourcePoint" />
            <mxPoint x="379.98" y="1550" as="targetPoint" />
          </mxGeometry>
        </mxCell>
        <mxCell id="THaj0_RdUtNvfIVz2Z8k-87" value="&lt;font style=&quot;font-size: 10px;&quot;&gt;Transaction complete&lt;/font&gt;" style="edgeLabel;html=1;align=center;verticalAlign=middle;resizable=0;points=[];" vertex="1" connectable="0" parent="THaj0_RdUtNvfIVz2Z8k-86">
          <mxGeometry x="-0.5861" y="-2" relative="1" as="geometry">
            <mxPoint x="-41" y="-8" as="offset" />
          </mxGeometry>
        </mxCell>
        <mxCell id="THaj0_RdUtNvfIVz2Z8k-88" value="Transaction" style="html=1;align=left;spacingLeft=2;endArrow=block;rounded=0;edgeStyle=orthogonalEdgeStyle;curved=0;rounded=0;entryX=1.5;entryY=0.833;entryDx=0;entryDy=0;entryPerimeter=0;" edge="1" parent="1" target="THaj0_RdUtNvfIVz2Z8k-68">
          <mxGeometry x="0.5663" y="10" relative="1" as="geometry">
            <mxPoint x="504.98" y="1490" as="sourcePoint" />
            <Array as="points">
              <mxPoint x="699.98" y="1490" />
              <mxPoint x="699.98" y="1540" />
            </Array>
            <mxPoint x="509.98" y="1540" as="targetPoint" />
            <mxPoint as="offset" />
          </mxGeometry>
        </mxCell>
        <mxCell id="THaj0_RdUtNvfIVz2Z8k-89" value="" style="html=1;verticalAlign=bottom;labelBackgroundColor=none;endArrow=block;endFill=1;dashed=1;rounded=0;" edge="1" parent="1">
          <mxGeometry width="160" relative="1" as="geometry">
            <mxPoint x="364.98" y="1580" as="sourcePoint" />
            <mxPoint x="234.98000000000002" y="1580" as="targetPoint" />
          </mxGeometry>
        </mxCell>
        <mxCell id="THaj0_RdUtNvfIVz2Z8k-90" value="Dispense Cash" style="edgeLabel;html=1;align=center;verticalAlign=middle;resizable=0;points=[];" vertex="1" connectable="0" parent="THaj0_RdUtNvfIVz2Z8k-89">
          <mxGeometry x="-0.2277" y="2" relative="1" as="geometry">
            <mxPoint x="-5" y="-12" as="offset" />
          </mxGeometry>
        </mxCell>
        <mxCell id="THaj0_RdUtNvfIVz2Z8k-91" value="" style="html=1;verticalAlign=bottom;labelBackgroundColor=none;endArrow=block;endFill=1;rounded=0;" edge="1" parent="1">
          <mxGeometry width="160" relative="1" as="geometry">
            <mxPoint x="364.98" y="1610" as="sourcePoint" />
            <mxPoint x="239.98000000000002" y="1610" as="targetPoint" />
          </mxGeometry>
        </mxCell>
        <mxCell id="THaj0_RdUtNvfIVz2Z8k-92" value="Eject card" style="edgeLabel;html=1;align=center;verticalAlign=middle;resizable=0;points=[];" vertex="1" connectable="0" parent="THaj0_RdUtNvfIVz2Z8k-91">
          <mxGeometry x="-0.2544" y="1" relative="1" as="geometry">
            <mxPoint x="-8" y="-11" as="offset" />
          </mxGeometry>
        </mxCell>
        <mxCell id="THaj0_RdUtNvfIVz2Z8k-93" value="" style="html=1;verticalAlign=bottom;labelBackgroundColor=none;endArrow=block;endFill=1;dashed=1;rounded=0;exitX=1;exitY=1;exitDx=0;exitDy=-5;exitPerimeter=0;" edge="1" parent="1" source="THaj0_RdUtNvfIVz2Z8k-54" target="THaj0_RdUtNvfIVz2Z8k-61">
          <mxGeometry width="160" relative="1" as="geometry">
            <mxPoint x="239.98000000000002" y="1640" as="sourcePoint" />
            <mxPoint x="399.98" y="1640" as="targetPoint" />
          </mxGeometry>
        </mxCell>
        <mxCell id="THaj0_RdUtNvfIVz2Z8k-94" value="Card retrieved" style="edgeLabel;html=1;align=center;verticalAlign=middle;resizable=0;points=[];" vertex="1" connectable="0" parent="THaj0_RdUtNvfIVz2Z8k-93">
          <mxGeometry x="0.1662" y="-2" relative="1" as="geometry">
            <mxPoint x="-11" y="13" as="offset" />
          </mxGeometry>
        </mxCell>
        <mxCell id="THaj0_RdUtNvfIVz2Z8k-95" value="" style="shape=umlLifeline;perimeter=lifelinePerimeter;whiteSpace=wrap;html=1;container=1;dropTarget=0;collapsible=0;recursiveResize=0;outlineConnect=0;portConstraint=eastwest;newEdgeStyle={&quot;curved&quot;:0,&quot;rounded&quot;:0};participant=umlActor;" vertex="1" parent="1">
          <mxGeometry x="275" y="1760" width="20" height="420" as="geometry" />
        </mxCell>
        <mxCell id="THaj0_RdUtNvfIVz2Z8k-96" value="" style="html=1;points=[[0,0,0,0,5],[0,1,0,0,-5],[1,0,0,0,5],[1,1,0,0,-5]];perimeter=orthogonalPerimeter;outlineConnect=0;targetShapes=umlLifeline;portConstraint=eastwest;newEdgeStyle={&quot;curved&quot;:0,&quot;rounded&quot;:0};" vertex="1" parent="THaj0_RdUtNvfIVz2Z8k-95">
          <mxGeometry x="5" y="60" width="10" height="340" as="geometry" />
        </mxCell>
        <mxCell id="THaj0_RdUtNvfIVz2Z8k-97" value="costumer" style="text;html=1;align=center;verticalAlign=middle;whiteSpace=wrap;rounded=0;" vertex="1" parent="1">
          <mxGeometry x="260" y="1730" width="50" height="30" as="geometry" />
        </mxCell>
        <mxCell id="THaj0_RdUtNvfIVz2Z8k-98" value="dispatch" style="html=1;verticalAlign=bottom;startArrow=oval;endArrow=block;startSize=8;edgeStyle=elbowEdgeStyle;elbow=vertical;curved=0;rounded=0;" edge="1" parent="1">
          <mxGeometry relative="1" as="geometry">
            <mxPoint x="215" y="1820.17" as="sourcePoint" />
            <mxPoint x="280" y="1820.17" as="targetPoint" />
          </mxGeometry>
        </mxCell>
        <mxCell id="THaj0_RdUtNvfIVz2Z8k-99" value="Insert card" style="html=1;verticalAlign=bottom;endArrow=block;curved=0;rounded=0;" edge="1" parent="1" target="THaj0_RdUtNvfIVz2Z8k-101">
          <mxGeometry width="80" relative="1" as="geometry">
            <mxPoint x="290" y="1830" as="sourcePoint" />
            <mxPoint x="414.5" y="1830" as="targetPoint" />
          </mxGeometry>
        </mxCell>
        <mxCell id="THaj0_RdUtNvfIVz2Z8k-100" value="ATM machine" style="shape=umlLifeline;perimeter=lifelinePerimeter;whiteSpace=wrap;html=1;container=1;dropTarget=0;collapsible=0;recursiveResize=0;outlineConnect=0;portConstraint=eastwest;newEdgeStyle={&quot;curved&quot;:0,&quot;rounded&quot;:0};" vertex="1" parent="1">
          <mxGeometry x="375" y="1760" width="100" height="420" as="geometry" />
        </mxCell>
        <mxCell id="THaj0_RdUtNvfIVz2Z8k-101" value="" style="html=1;points=[[0,0,0,0,5],[0,1,0,0,-5],[1,0,0,0,5],[1,1,0,0,-5]];perimeter=orthogonalPerimeter;outlineConnect=0;targetShapes=umlLifeline;portConstraint=eastwest;newEdgeStyle={&quot;curved&quot;:0,&quot;rounded&quot;:0};" vertex="1" parent="THaj0_RdUtNvfIVz2Z8k-100">
          <mxGeometry x="45" y="70" width="10" height="70" as="geometry" />
        </mxCell>
        <mxCell id="THaj0_RdUtNvfIVz2Z8k-102" value="" style="html=1;points=[[0,0,0,0,5],[0,1,0,0,-5],[1,0,0,0,5],[1,1,0,0,-5]];perimeter=orthogonalPerimeter;outlineConnect=0;targetShapes=umlLifeline;portConstraint=eastwest;newEdgeStyle={&quot;curved&quot;:0,&quot;rounded&quot;:0};" vertex="1" parent="THaj0_RdUtNvfIVz2Z8k-100">
          <mxGeometry x="45" y="160" width="10" height="240" as="geometry" />
        </mxCell>
        <mxCell id="THaj0_RdUtNvfIVz2Z8k-104" value="" style="html=1;verticalAlign=bottom;labelBackgroundColor=none;endArrow=block;endFill=1;dashed=1;rounded=0;" edge="1" parent="1">
          <mxGeometry width="160" relative="1" as="geometry">
            <mxPoint x="420" y="1860" as="sourcePoint" />
            <mxPoint x="290" y="1860" as="targetPoint" />
          </mxGeometry>
        </mxCell>
        <mxCell id="THaj0_RdUtNvfIVz2Z8k-105" value="Request PIN" style="edgeLabel;html=1;align=center;verticalAlign=middle;resizable=0;points=[];" vertex="1" connectable="0" parent="THaj0_RdUtNvfIVz2Z8k-104">
          <mxGeometry x="0.2154" y="1" relative="1" as="geometry">
            <mxPoint x="14" y="-11" as="offset" />
          </mxGeometry>
        </mxCell>
        <mxCell id="THaj0_RdUtNvfIVz2Z8k-106" value="" style="html=1;verticalAlign=bottom;labelBackgroundColor=none;endArrow=block;endFill=1;rounded=0;" edge="1" parent="1">
          <mxGeometry width="160" relative="1" as="geometry">
            <mxPoint x="290" y="1890" as="sourcePoint" />
            <mxPoint x="420" y="1890" as="targetPoint" />
          </mxGeometry>
        </mxCell>
        <mxCell id="THaj0_RdUtNvfIVz2Z8k-107" value="Enter PIN" style="edgeLabel;html=1;align=center;verticalAlign=middle;resizable=0;points=[];" vertex="1" connectable="0" parent="THaj0_RdUtNvfIVz2Z8k-106">
          <mxGeometry x="0.1607" y="1" relative="1" as="geometry">
            <mxPoint x="-11" y="-9" as="offset" />
          </mxGeometry>
        </mxCell>
        <mxCell id="THaj0_RdUtNvfIVz2Z8k-108" value="Banking server" style="shape=umlLifeline;perimeter=lifelinePerimeter;whiteSpace=wrap;html=1;container=1;dropTarget=0;collapsible=0;recursiveResize=0;outlineConnect=0;portConstraint=eastwest;newEdgeStyle={&quot;edgeStyle&quot;:&quot;elbowEdgeStyle&quot;,&quot;elbow&quot;:&quot;vertical&quot;,&quot;curved&quot;:0,&quot;rounded&quot;:0};" vertex="1" parent="1">
          <mxGeometry x="505" y="1760" width="100" height="420" as="geometry" />
        </mxCell>
        <mxCell id="THaj0_RdUtNvfIVz2Z8k-109" value="" style="html=1;points=[[0,0,0,0,5],[0,1,0,0,-5],[1,0,0,0,5],[1,1,0,0,-5]];perimeter=orthogonalPerimeter;outlineConnect=0;targetShapes=umlLifeline;portConstraint=eastwest;newEdgeStyle={&quot;curved&quot;:0,&quot;rounded&quot;:0};" vertex="1" parent="THaj0_RdUtNvfIVz2Z8k-108">
          <mxGeometry x="45" y="130" width="10" height="40" as="geometry" />
        </mxCell>
        <mxCell id="THaj0_RdUtNvfIVz2Z8k-110" value="" style="html=1;points=[[0,0,0,0,5],[0,1,0,0,-5],[1,0,0,0,5],[1,1,0,0,-5]];perimeter=orthogonalPerimeter;outlineConnect=0;targetShapes=umlLifeline;portConstraint=eastwest;newEdgeStyle={&quot;curved&quot;:0,&quot;rounded&quot;:0};" vertex="1" parent="THaj0_RdUtNvfIVz2Z8k-108">
          <mxGeometry x="45" y="340" width="10" height="40" as="geometry" />
        </mxCell>
        <mxCell id="THaj0_RdUtNvfIVz2Z8k-111" value="" style="html=1;verticalAlign=bottom;labelBackgroundColor=none;endArrow=block;endFill=1;rounded=0;entryX=0;entryY=0;entryDx=0;entryDy=5;entryPerimeter=0;" edge="1" parent="1" source="THaj0_RdUtNvfIVz2Z8k-101" target="THaj0_RdUtNvfIVz2Z8k-109">
          <mxGeometry width="160" relative="1" as="geometry">
            <mxPoint x="435" y="1900" as="sourcePoint" />
            <mxPoint x="545" y="1900" as="targetPoint" />
          </mxGeometry>
        </mxCell>
        <mxCell id="THaj0_RdUtNvfIVz2Z8k-112" value="Verify pin" style="edgeLabel;html=1;align=center;verticalAlign=middle;resizable=0;points=[];" vertex="1" connectable="0" parent="THaj0_RdUtNvfIVz2Z8k-111">
          <mxGeometry x="0.2095" relative="1" as="geometry">
            <mxPoint x="-8" y="-15" as="offset" />
          </mxGeometry>
        </mxCell>
        <mxCell id="THaj0_RdUtNvfIVz2Z8k-113" value="" style="html=1;verticalAlign=bottom;labelBackgroundColor=none;endArrow=block;endFill=1;dashed=1;rounded=0;" edge="1" parent="1">
          <mxGeometry width="160" relative="1" as="geometry">
            <mxPoint x="550" y="1920" as="sourcePoint" />
            <mxPoint x="435" y="1920" as="targetPoint" />
          </mxGeometry>
        </mxCell>
        <mxCell id="THaj0_RdUtNvfIVz2Z8k-114" value="Verified" style="edgeLabel;html=1;align=center;verticalAlign=middle;resizable=0;points=[];" vertex="1" connectable="0" parent="THaj0_RdUtNvfIVz2Z8k-113">
          <mxGeometry x="-0.1333" y="2" relative="1" as="geometry">
            <mxPoint x="-3" y="-12" as="offset" />
          </mxGeometry>
        </mxCell>
        <mxCell id="THaj0_RdUtNvfIVz2Z8k-115" value="" style="html=1;verticalAlign=bottom;labelBackgroundColor=none;endArrow=block;endFill=1;dashed=1;rounded=0;" edge="1" parent="1">
          <mxGeometry width="160" relative="1" as="geometry">
            <mxPoint x="420" y="1930" as="sourcePoint" />
            <mxPoint x="295" y="1930" as="targetPoint" />
          </mxGeometry>
        </mxCell>
        <mxCell id="THaj0_RdUtNvfIVz2Z8k-116" value="Enter desired action" style="edgeLabel;html=1;align=center;verticalAlign=middle;resizable=0;points=[];" vertex="1" connectable="0" parent="THaj0_RdUtNvfIVz2Z8k-115">
          <mxGeometry x="-0.3189" y="-1" relative="1" as="geometry">
            <mxPoint x="-23" y="-9" as="offset" />
          </mxGeometry>
        </mxCell>
        <mxCell id="THaj0_RdUtNvfIVz2Z8k-117" value="" style="html=1;verticalAlign=bottom;labelBackgroundColor=none;endArrow=block;endFill=1;rounded=0;" edge="1" parent="1">
          <mxGeometry width="160" relative="1" as="geometry">
            <mxPoint x="290" y="1960" as="sourcePoint" />
            <mxPoint x="420" y="1960" as="targetPoint" />
          </mxGeometry>
        </mxCell>
        <mxCell id="THaj0_RdUtNvfIVz2Z8k-118" value="Change PIN" style="edgeLabel;html=1;align=center;verticalAlign=middle;resizable=0;points=[];" vertex="1" connectable="0" parent="THaj0_RdUtNvfIVz2Z8k-117">
          <mxGeometry x="-0.3212" y="1" relative="1" as="geometry">
            <mxPoint x="21" y="-9" as="offset" />
          </mxGeometry>
        </mxCell>
        <mxCell id="THaj0_RdUtNvfIVz2Z8k-119" value="" style="html=1;verticalAlign=bottom;labelBackgroundColor=none;endArrow=block;endFill=1;dashed=1;rounded=0;" edge="1" parent="1">
          <mxGeometry width="160" relative="1" as="geometry">
            <mxPoint x="415" y="2000" as="sourcePoint" />
            <mxPoint x="295" y="2000" as="targetPoint" />
          </mxGeometry>
        </mxCell>
        <mxCell id="THaj0_RdUtNvfIVz2Z8k-120" value="Enter new PIN" style="edgeLabel;html=1;align=center;verticalAlign=middle;resizable=0;points=[];" vertex="1" connectable="0" parent="THaj0_RdUtNvfIVz2Z8k-119">
          <mxGeometry x="-0.2132" y="1" relative="1" as="geometry">
            <mxPoint x="-14" y="-16" as="offset" />
          </mxGeometry>
        </mxCell>
        <mxCell id="THaj0_RdUtNvfIVz2Z8k-121" value="" style="html=1;verticalAlign=bottom;labelBackgroundColor=none;endArrow=block;endFill=1;rounded=0;" edge="1" parent="1">
          <mxGeometry width="160" relative="1" as="geometry">
            <mxPoint x="290" y="2030" as="sourcePoint" />
            <mxPoint x="420" y="2030" as="targetPoint" />
          </mxGeometry>
        </mxCell>
        <mxCell id="THaj0_RdUtNvfIVz2Z8k-122" value="New PIN" style="edgeLabel;html=1;align=center;verticalAlign=middle;resizable=0;points=[];" vertex="1" connectable="0" parent="THaj0_RdUtNvfIVz2Z8k-121">
          <mxGeometry x="0.3099" relative="1" as="geometry">
            <mxPoint x="-15" y="-10" as="offset" />
          </mxGeometry>
        </mxCell>
        <mxCell id="THaj0_RdUtNvfIVz2Z8k-123" value="" style="html=1;verticalAlign=bottom;labelBackgroundColor=none;endArrow=block;endFill=1;rounded=0;" edge="1" parent="1" source="THaj0_RdUtNvfIVz2Z8k-102">
          <mxGeometry width="160" relative="1" as="geometry">
            <mxPoint x="435.0000000000002" y="2100.34" as="sourcePoint" />
            <mxPoint x="555.03" y="2100" as="targetPoint" />
            <Array as="points">
              <mxPoint x="500.03" y="2100.34" />
            </Array>
          </mxGeometry>
        </mxCell>
        <mxCell id="THaj0_RdUtNvfIVz2Z8k-124" value="Update PIN" style="edgeLabel;html=1;align=center;verticalAlign=middle;resizable=0;points=[];" vertex="1" connectable="0" parent="THaj0_RdUtNvfIVz2Z8k-123">
          <mxGeometry x="-0.0926" y="1" relative="1" as="geometry">
            <mxPoint x="4" y="-9" as="offset" />
          </mxGeometry>
        </mxCell>
        <mxCell id="THaj0_RdUtNvfIVz2Z8k-128" value="" style="html=1;verticalAlign=bottom;labelBackgroundColor=none;endArrow=block;endFill=1;dashed=1;rounded=0;" edge="1" parent="1">
          <mxGeometry width="160" relative="1" as="geometry">
            <mxPoint x="550" y="2140" as="sourcePoint" />
            <mxPoint x="435" y="2140" as="targetPoint" />
          </mxGeometry>
        </mxCell>
        <mxCell id="THaj0_RdUtNvfIVz2Z8k-129" value="&lt;span style=&quot;font-size: 10px;&quot;&gt;PIN update successful&lt;/span&gt;" style="edgeLabel;html=1;align=center;verticalAlign=middle;resizable=0;points=[];" vertex="1" connectable="0" parent="THaj0_RdUtNvfIVz2Z8k-128">
          <mxGeometry x="-0.5861" y="-2" relative="1" as="geometry">
            <mxPoint x="-41" y="-8" as="offset" />
          </mxGeometry>
        </mxCell>
        <mxCell id="THaj0_RdUtNvfIVz2Z8k-138" value="PIN updates" style="html=1;align=left;spacingLeft=2;endArrow=block;rounded=0;edgeStyle=orthogonalEdgeStyle;curved=0;rounded=0;" edge="1" parent="1">
          <mxGeometry relative="1" as="geometry">
            <mxPoint x="560.03" y="2100" as="sourcePoint" />
            <Array as="points">
              <mxPoint x="600.03" y="2100" />
              <mxPoint x="600.03" y="2130" />
            </Array>
            <mxPoint x="565.03" y="2130.034482758621" as="targetPoint" />
          </mxGeometry>
        </mxCell>
        <mxCell id="THaj0_RdUtNvfIVz2Z8k-139" value="" style="html=1;verticalAlign=bottom;labelBackgroundColor=none;endArrow=block;endFill=1;dashed=1;rounded=0;" edge="1" parent="1">
          <mxGeometry width="160" relative="1" as="geometry">
            <mxPoint x="415" y="2060" as="sourcePoint" />
            <mxPoint x="290.03" y="2060" as="targetPoint" />
          </mxGeometry>
        </mxCell>
        <mxCell id="THaj0_RdUtNvfIVz2Z8k-140" value="Confirm PIN" style="edgeLabel;html=1;align=center;verticalAlign=middle;resizable=0;points=[];" vertex="1" connectable="0" parent="THaj0_RdUtNvfIVz2Z8k-139">
          <mxGeometry x="-0.6545" y="-1" relative="1" as="geometry">
            <mxPoint x="-34" y="-9" as="offset" />
          </mxGeometry>
        </mxCell>
        <mxCell id="THaj0_RdUtNvfIVz2Z8k-142" value="" style="html=1;verticalAlign=bottom;labelBackgroundColor=none;endArrow=block;endFill=1;rounded=0;" edge="1" parent="1">
          <mxGeometry width="160" relative="1" as="geometry">
            <mxPoint x="290.03" y="2100" as="sourcePoint" />
            <mxPoint x="420.03" y="2100" as="targetPoint" />
          </mxGeometry>
        </mxCell>
        <mxCell id="THaj0_RdUtNvfIVz2Z8k-143" value="Enter new PIN again" style="edgeLabel;html=1;align=center;verticalAlign=middle;resizable=0;points=[];" vertex="1" connectable="0" parent="THaj0_RdUtNvfIVz2Z8k-142">
          <mxGeometry x="0.3099" relative="1" as="geometry">
            <mxPoint x="-15" y="-10" as="offset" />
          </mxGeometry>
        </mxCell>
        <mxCell id="THaj0_RdUtNvfIVz2Z8k-144" value="" style="html=1;verticalAlign=bottom;labelBackgroundColor=none;endArrow=block;endFill=1;dashed=1;rounded=0;" edge="1" parent="1">
          <mxGeometry width="160" relative="1" as="geometry">
            <mxPoint x="420" y="2150" as="sourcePoint" />
            <mxPoint x="295.03" y="2150" as="targetPoint" />
          </mxGeometry>
        </mxCell>
        <mxCell id="THaj0_RdUtNvfIVz2Z8k-145" value="Display message" style="edgeLabel;html=1;align=center;verticalAlign=middle;resizable=0;points=[];" vertex="1" connectable="0" parent="THaj0_RdUtNvfIVz2Z8k-144">
          <mxGeometry x="-0.6306" relative="1" as="geometry">
            <mxPoint x="-40" y="-10" as="offset" />
          </mxGeometry>
        </mxCell>
      </root>
    </mxGraphModel>
  </diagram>
</mxfile>
